<?xml version="1.0" encoding="utf-8"?>
<!-- Generator: Adobe Illustrator 16.0.0, SVG Export Plug-In . SVG Version: 6.00 Build 0)  -->
<!DOCTYPE svg PUBLIC "-//W3C//DTD SVG 1.1//EN" "http://www.w3.org/Graphics/SVG/1.1/DTD/svg11.dtd">
<svg version="1.1" id="图层_1" xmlns="http://www.w3.org/2000/svg" xmlns:xlink="http://www.w3.org/1999/xlink" x="0px" y="0px"
	 width="114px" height="114px" viewBox="0 0 114 114" enable-background="new 0 0 114 114" xml:space="preserve">
<path fill="#2599FA" d="M114,88.667C114,102.658,102.658,114,88.667,114H25.333C11.342,114,0,102.658,0,88.667V25.333
	C0,11.342,11.342,0,25.333,0h63.334C102.658,0,114,11.342,114,25.333V88.667z"/>
<g>
	<path fill="#FFFFFF" d="M45.585,85.444c1.104-1.588,1.754-3.513,1.754-5.594c0-5.423-4.394-9.816-9.816-9.816
		c-5.42,0-9.815,4.394-9.815,9.816c0,2.081,0.652,4.006,1.755,5.594H45.585z"/>
	<path fill="#FFFFFF" d="M86.269,45.966c0,0-1.584-28.923-29.24-28.923S26.524,45.966,26.524,45.966S7.523,46.916,7.523,66.862
		c0,19.95,17.839,19.792,17.839,19.792c-0.197-0.413,0.05-0.839,0.624-1.265c-0.696-1.57-1.091-3.303-1.091-5.131
		c0-6.994,5.67-12.667,12.667-12.667c6.675,0,12.131,5.169,12.618,11.717c1.013-0.163,1.623-0.255,1.623-0.255l17.892-0.059V73.81
		h3.78v5.265l3.819-0.06V73.77h3.695v6.816l3.801-0.106v6.333c0,0,20.479,0.739,21.639-19.737
		C107.59,46.6,86.269,45.966,86.269,45.966z"/>
</g>
<g>
	<path fill="#2599FA" d="M31.708,46.004c3.786-1.339,8.659-2.17,14.616-2.494l0.277,0.624c-3.141,0.277-5.888,0.739-8.243,1.385
		c0.139,0.231,0.184,0.416,0.139,0.554c-1.433,2.448-2.217,4.156-2.355,5.126c0,0.554,0.392,0.855,1.178,0.9
		c1.801,0,3.556-0.3,5.265-0.9c-0.97-1.292-1.57-2.193-1.801-2.702c-0.277-0.461-0.186-0.876,0.276-1.247
		c0.738-0.323,1.432,0.023,2.078,1.039c1.063,1.709,2.286,3.418,3.672,5.126c-1.247,0.184-1.964,0.346-2.147,0.485
		c-0.093-0.139-0.255-0.37-0.485-0.693c-0.139-0.185-0.531-0.646-1.178-1.385c-3.324,1.154-5.61,1.731-6.857,1.731
		c-1.386-0.138-2.102-0.808-2.147-2.009c-0.047-0.923,0.716-2.747,2.286-5.472c-1.617,0.509-2.909,1.039-3.879,1.593
		c-0.878,0.416-1.433,0.346-1.663-0.208C30.554,46.859,30.877,46.374,31.708,46.004z M32.955,41.363
		c2.031-0.693,5.587-1.2,10.668-1.524l0.277,0.485c-3.88,0.462-7.298,1.271-10.253,2.424c-0.692,0.277-1.132,0.254-1.315-0.069
		C32.055,42.171,32.263,41.733,32.955,41.363z"/>
	<path fill="#2599FA" d="M53.676,50.922v0.347v0.624c0.092,0.462,0.369,0.531,0.831,0.208c0.554-0.369,0.923-0.669,1.108-0.9
		l0.415,0.416c-0.462,0.739-1.201,1.455-2.217,2.147c-1.107,0.646-1.847,0.3-2.216-1.039c-0.094-0.554-0.139-1.154-0.139-1.801
		c0-0.138,0-0.346,0-0.623c-0.047-0.554-0.047-0.97,0-1.247c-0.37,0.185-0.693,0.416-0.97,0.693
		c-0.786,0.554-1.34,0.578-1.663,0.069c-0.139-0.461,0.115-0.901,0.763-1.316c0.507-0.322,1.153-0.624,1.939-0.9
		c0-0.508,0.069-0.97,0.207-1.385c0-0.092,0.046-0.184,0.139-0.277c-0.276,0.093-0.509,0.208-0.692,0.346
		c-0.831,0.371-1.316,0.347-1.455-0.069c-0.138-0.416,0.093-0.762,0.693-1.039c1.339-0.554,3.023-0.923,5.057-1.108l0.277,0.485
		c-0.602,0.138-1.363,0.37-2.286,0.692c-0.186,0.047-0.324,0.093-0.416,0.139c0.646,0.185,0.924,0.485,0.831,0.9
		c0,0.093-0.023,0.277-0.069,0.554c0.046-0.184,0.023-0.138-0.068,0.139c0.737-0.23,1.454-0.369,2.146-0.416l0.347,0.485
		c-0.97,0.277-1.825,0.578-2.563,0.9c-0.047,0.924-0.069,1.917-0.069,2.979H53.676z M52.221,39.354
		c0.6,0.277,0.831,0.601,0.692,0.97c-0.046,0.139-0.093,0.301-0.139,0.485c-0.046,0.139-0.115,0.37-0.207,0.693
		c1.385-0.277,2.539-0.416,3.463-0.416l0.277,0.416c-1.756,0.462-3.21,1.016-4.364,1.662c-0.093,0.232-0.208,0.485-0.346,0.762
		c-0.602,0.093-1.409,0.277-2.425,0.554c0.738-1.616,1.292-3.117,1.662-4.502C51.065,39.285,51.528,39.077,52.221,39.354z
		 M58.247,39.7c0.416,0,0.693,0.208,0.831,0.624c0.785-0.461,1.616-0.715,2.494-0.762c1.339,0.093,2.17,0.762,2.494,2.009
		c0.138,1.155,0.184,3.28,0.138,6.373c0,2.632-0.068,4.549-0.207,5.75c-0.509,0-1.178,0.045-2.009,0.139
		c0.138-0.924,0.207-2.863,0.207-5.819c-1.34,0.416-2.587,0.878-3.74,1.385c-0.047,0.416-0.093,1.063-0.139,1.94
		c-0.093,0.97-0.162,1.685-0.208,2.147c-0.831,0-1.479,0.069-1.939,0.208c0.185-3.971,0.485-8.358,0.9-13.162
		C57.162,39.839,57.555,39.562,58.247,39.7z M58.732,45.796c0,0.693-0.047,1.386-0.139,2.078c0.23-0.045,0.577-0.092,1.039-0.138
		c1.247-0.184,2.101-0.277,2.563-0.277c0-0.97-0.023-1.916-0.069-2.84C61.479,44.804,60.348,45.196,58.732,45.796z M61.919,41.363
		c-0.186-0.693-0.601-0.877-1.247-0.554c-0.601,0.462-1.155,0.994-1.663,1.593c0,0.554-0.046,1.201-0.138,1.939
		c0.092,0,0.276-0.022,0.554-0.069c1.247-0.184,2.147-0.3,2.701-0.346C62.033,42.541,61.964,41.687,61.919,41.363z"/>
	<path fill="#2599FA" d="M70.586,48.013c0.508,0.37,0.6,0.831,0.276,1.385c-0.046,0.093-0.115,0.232-0.207,0.416
		c-0.094,0.231-0.163,0.393-0.208,0.485c0.092,0.046,0.253,0.093,0.484,0.138c0.185,0.093,0.323,0.163,0.416,0.208
		c0.046-0.6,0.046-1.455,0-2.563c0-0.461,0-0.785,0-0.97c-1.247,0.277-2.264,0.578-3.048,0.9c-0.692,0.277-1.225,0.231-1.594-0.139
		c-0.185-0.738,0-1.177,0.555-1.316c3.509-0.693,6.673-1.015,9.49-0.97c-0.047-2.262,0-3.879,0.139-4.849
		c0.139-0.693,0.461-1.015,0.97-0.97c0.738,0.093,1.108,0.462,1.108,1.108c0,0.139,0,0.416,0,0.831
		c-0.047,0.693-0.069,1.247-0.069,1.663c1.339-0.23,2.539-0.3,3.602-0.208l0.277,0.416c-1.524,0.416-2.817,0.947-3.879,1.593
		c0,0.831,0.022,1.479,0.069,1.939c0.092,0.831,0.438,1.293,1.039,1.385c0.692,0,1.5-0.253,2.424-0.762l0.485,0.485
		c-1.063,0.97-2.078,1.617-3.048,1.939c-1.201,0.324-2.103-0.092-2.702-1.247c-0.138-0.322-0.254-1.154-0.346-2.494
		c-1.247,0.046-2.425,0.163-3.533,0.346c0.139,0.139,0.208,0.347,0.208,0.624v0.624c1.2-0.092,2.17-0.139,2.909-0.139l0.347,0.762
		c-1.294,0.231-2.402,0.624-3.325,1.178c0,0.416,0,0.877,0,1.385c3.14,0.786,6.349,1.363,9.629,1.732
		c-0.693,0.369-1.34,0.854-1.939,1.455c-4.111-0.554-7.897-1.316-11.36-2.286c-0.186,0.554-0.347,1.131-0.485,1.732
		c-0.416-0.093-1.155-0.093-2.217,0c0.877-2.816,1.547-4.617,2.009-5.403C69.522,47.874,70.031,47.736,70.586,48.013z
		 M68.923,40.254c0.093-0.6,0.438-0.854,1.039-0.762c0.323,0.047,0.577,0.139,0.763,0.277c0.784-0.369,1.569-0.485,2.354-0.346
		c1.293,0.138,1.985,0.831,2.078,2.078c0.046,1.108-0.023,2.033-0.207,2.771c0.138,0,0.253,0.024,0.346,0.069l0.277,0.624
		c-1.939,0.139-3.579,0.301-4.918,0.485v0.346c-0.647-0.138-1.316-0.115-2.009,0.069C68.6,43.742,68.691,41.872,68.923,40.254z
		 M70.794,43.233c0,0.277-0.024,0.554-0.069,0.832c0.692,0,1.431-0.023,2.216-0.069c0.093-0.369,0.139-0.785,0.139-1.247
		C72.248,42.887,71.486,43.049,70.794,43.233z M70.932,41.017c-0.046,0.231-0.069,0.485-0.069,0.762
		c0.277,0,0.646-0.022,1.108-0.069c0.508,0,0.877,0,1.108,0c0-0.092,0-0.208,0-0.346c-0.046-0.139-0.069-0.23-0.069-0.277
		c-0.046-0.554-0.37-0.738-0.97-0.554C71.625,40.578,71.255,40.739,70.932,41.017z"/>
</g>
<path fill="#FFFFFF" d="M25.744,84.792h-0.448v1.875h1.341C26.289,86.07,25.992,85.444,25.744,84.792z"/>
</svg>
