<?xml version="1.0" encoding="utf-8"?>
<!-- Generator: Adobe Illustrator 19.0.0, SVG Export Plug-In . SVG Version: 6.00 Build 0)  -->
<svg version="1.1" id="图层_1" xmlns="http://www.w3.org/2000/svg" xmlns:xlink="http://www.w3.org/1999/xlink" x="0px" y="0px"
	 viewBox="-130 -8 50 50" style="enable-background:new -130 -8 50 50;" xml:space="preserve">
<style type="text/css">
	.st0{fill:#ECF0F1;stroke:#ECEFF0;stroke-miterlimit:10;}
	.st1{fill:none;stroke:#333333;stroke-width:2.6722;stroke-miterlimit:10;}
	.st2{fill:#333333;}
</style>
<g>
	<path class="st0" d="M-314.3-28.7c0,0.1,0,0.1,0.1,0.2c0.2,0.3,0.2,0.7,0.2,1.1c0,1.4-1.1,2.5-2.5,2.5c-0.2,0-0.3,0-0.5,0.1
		c-0.1-0.1-0.2-0.1-0.4-0.1c-0.5,0-0.8,0.4-0.8,0.8v6.8v3.6v6.3c0,1.4-1.1,2.5-2.5,2.5h-30.2c-1.4,0-2.5-1.1-2.5-2.5v-16.8
		c0-0.5-0.4-0.8-0.8-0.8c-0.5,0-0.8,0.4-0.8,0.8v16.8c0,2.3,1.9,4.2,4.2,4.2h30.2c2.3,0,4.2-1.9,4.2-4.2v-6.3v-3.6v-6l0,0
		c2.3,0,4.2-1.9,4.2-4.2c0-0.6-0.1-1.2-0.4-1.8c0-0.2-0.1-0.4-0.3-0.5l-20.2-19.3c0,0-0.1-0.1-0.1-0.1c-0.1-0.1-0.1-0.2-0.3-0.3
		c-0.7-0.4-1.5-0.7-2.3-0.7c-0.8,0-1.5,0.2-2.1,0.6c-0.4,0.2-0.5,0.7-0.3,1.1c0.2,0.4,0.7,0.5,1.1,0.3c0.4-0.2,0.8-0.3,1.3-0.3
		c0.5,0,1,0.1,1.4,0.4c0,0,0,0,0,0c0,0.1,0.1,0.1,0.1,0.2L-314.3-28.7L-314.3-28.7z"/>
	<path class="st0" d="M-357.2-28.9c0,0,0,0.1-0.1,0.1c-0.2,0.4-0.4,0.8-0.4,1.3c0,1.4,1.1,2.5,2.5,2.5c0.5,0,0.8,0.4,0.8,0.8
		s-0.4,0.8-0.8,0.8c-2.3,0-4.2-1.9-4.2-4.2c0-0.8,0.2-1.5,0.6-2.1c0.1-0.1,0.1-0.2,0.2-0.2c0-0.1,0.1-0.2,0.2-0.3l19.8-19
		c0.3-0.3,0.9-0.3,1.2,0c0.3,0.3,0.3,0.9,0,1.2L-357.2-28.9C-357.1-28.9-357.2-28.9-357.2-28.9L-357.2-28.9z"/>
</g>
<g>
	<path class="st1" d="M-128.5,11.6V-2.6c0-2.2,1.8-4,4-4h39.1c2.2,0,4,1.8,4,4v14.2"/>
	<path class="st1" d="M-128.5,22.7v13.9c0,2.2,1.8,4,4,4h39.1c2.2,0,4-1.8,4-4V22.7"/>
	<rect x="-129.9" y="15.9" class="st2" width="49.9" height="2.6"/>
</g>
</svg>
