<?xml version="1.0" encoding="utf-8"?>
<!-- Generator: Adobe Illustrator 16.0.0, SVG Export Plug-In . SVG Version: 6.00 Build 0)  -->
<!DOCTYPE svg PUBLIC "-//W3C//DTD SVG 1.1//EN" "http://www.w3.org/Graphics/SVG/1.1/DTD/svg11.dtd">
<svg version="1.1" id="图层_1" xmlns="http://www.w3.org/2000/svg" xmlns:xlink="http://www.w3.org/1999/xlink" x="0px" y="0px"
	 width="169.5px" height="169.5px" viewBox="0 0 169.5 169.5" enable-background="new 0 0 169.5 169.5" xml:space="preserve">
<path fill="#2599FA" enable-background="new    " d="M169.5,139.764c0,16.424-13.313,29.736-29.736,29.736H29.737
	C13.313,169.5,0,156.188,0,139.764V29.737C0,13.313,13.313,0,29.737,0h110.027C156.187,0,169.5,13.313,169.5,29.737V139.764z"/>
<g>
	<polygon fill="#FFFFFF" points="94.778,91.274 78.271,107.781 68.492,106.436 69.837,116.215 60.058,114.87 61.402,124.648 
		51.624,123.305 52.969,133.084 52.967,133.086 39.462,130.037 36.415,116.535 78.227,74.723 	"/>
</g>
<g>
	<path fill="#5D5D5D" d="M129.478,65.577l-25.553-25.553c-4.812-4.812-12.61-4.813-17.423,0L69.08,57.445
		c-4.811,4.811-4.81,12.611,0,17.423l25.553,25.552c4.813,4.811,12.612,4.813,17.422,0l17.423-17.421
		C134.288,78.188,134.288,70.388,129.478,65.577z M102.619,59.041c2.164-2.163,5.674-2.163,7.84,0.003
		c2.164,2.164,2.164,5.675,0,7.838c-2.166,2.166-5.677,2.167-7.843,0.001C100.453,64.717,100.453,61.208,102.619,59.041z"/>
</g>
<circle fill="#FFFFFF" cx="106.437" cy="62.945" r="5.512"/>
</svg>
