<?xml version="1.0" encoding="utf-8"?>
<!-- Generator: Adobe Illustrator 16.0.0, SVG Export Plug-In . SVG Version: 6.00 Build 0)  -->
<!DOCTYPE svg PUBLIC "-//W3C//DTD SVG 1.1//EN" "http://www.w3.org/Graphics/SVG/1.1/DTD/svg11.dtd">
<svg version="1.1" id="图层_1" xmlns="http://www.w3.org/2000/svg" xmlns:xlink="http://www.w3.org/1999/xlink" x="0px" y="0px"
	 width="169.5px" height="169.5px" viewBox="0 0 169.5 169.5" enable-background="new 0 0 169.5 169.5" xml:space="preserve">
<path fill="#2599FA" d="M169.5,139.762c0,16.424-13.313,29.736-29.736,29.736H29.737C13.313,169.498,0,156.186,0,139.762V29.739
	C0,13.315,13.313,0.002,29.737,0.002h110.026c16.423,0,29.736,13.313,29.736,29.737V139.762z"/>
<path fill="none" stroke="#FFFFFF" stroke-width="6" stroke-miterlimit="10" d="M138.25,123.5c0,5.522-4.478,10-10,10h-87
	c-5.523,0-10-4.478-10-10v-87c0-5.522,4.477-10,10-10h87c5.522,0,10,4.478,10,10V123.5z"/>
<rect x="19.333" y="62.5" fill="#2599FA" width="140" height="34.999"/>
<rect x="26.417" y="75.833" fill="#FCFCFC" width="116.666" height="8.333"/>
</svg>
