<?xml version="1.0" encoding="utf-8"?>
<!-- Generator: Adobe Illustrator 19.0.0, SVG Export Plug-In . SVG Version: 6.00 Build 0)  -->
<svg version="1.1" id="图层_1" xmlns="http://www.w3.org/2000/svg" xmlns:xlink="http://www.w3.org/1999/xlink" x="0px" y="0px"
	 viewBox="0 0 56.7 56.7" style="enable-background:new 0 0 56.7 56.7;" xml:space="preserve">
<style type="text/css">
	.st0{fill:#323333;stroke:#323333;stroke-width:1.0756;stroke-linecap:round;stroke-miterlimit:10;}
</style>
<g>
	<path id="XMLID_3_" class="st0" d="M53.6,25.8c0,0.1,0,0.2,0.1,0.2c0.2,0.4,0.3,0.8,0.3,1.3c0,1.6-1.3,3-3,3
		c-0.2,0-0.4,0.1-0.5,0.2c-0.1-0.1-0.3-0.1-0.5-0.1c-0.5,0-1,0.4-1,1v8v4.3v7.4c0,1.6-1.3,3-3,3H10.4c-1.6,0-3-1.3-3-3V31.3
		c0-0.5-0.4-1-1-1c-0.5,0-1,0.4-1,1v19.9c0,2.7,2.2,4.9,5,4.9h35.6c2.7,0,5-2.2,5-5v-7.4v-4.3v-7.1l0,0c2.7,0,4.9-2.2,4.9-4.9
		c0-0.7-0.2-1.5-0.5-2.1c0-0.2-0.1-0.5-0.3-0.6L31.4,1.9c-0.1-0.1-0.1-0.1-0.2-0.1c-0.1-0.1-0.2-0.2-0.3-0.3
		c-0.8-0.5-1.7-0.8-2.7-0.8c-0.9,0-1.7,0.2-2.5,0.7c-0.5,0.3-0.6,0.9-0.4,1.4c0.3,0.5,0.9,0.6,1.4,0.4c0.4-0.3,1-0.4,1.5-0.4
		c0.6,0,1.1,0.2,1.6,0.5c0,0,0,0,0,0c0,0.1,0.1,0.1,0.2,0.2L53.6,25.8L53.6,25.8z"/>
	<path id="XMLID_2_" class="st0" d="M3.2,25.6c0,0.1,0,0.1-0.1,0.2c-0.3,0.5-0.4,1-0.4,1.5c0,1.6,1.3,3,3,3c0.5,0,1,0.4,1,1
		s-0.4,1-1,1c-2.7,0-4.9-2.2-4.9-4.9c0-0.9,0.2-1.8,0.7-2.5c0.1-0.1,0.1-0.2,0.2-0.3c0.1-0.1,0.1-0.3,0.2-0.4L25.2,1.7
		c0.4-0.4,1-0.4,1.4,0c0.4,0.4,0.4,1,0,1.4L3.2,25.6C3.2,25.5,3.2,25.5,3.2,25.6L3.2,25.6z"/>
</g>
</svg>
