<?xml version="1.0" encoding="utf-8"?>
<!-- Generator: Adobe Illustrator 19.0.0, SVG Export Plug-In . SVG Version: 6.00 Build 0)  -->
<svg version="1.1" id="图层_1" xmlns="http://www.w3.org/2000/svg" xmlns:xlink="http://www.w3.org/1999/xlink" x="0px" y="0px"
	 viewBox="0 0 56.7 56.7" style="enable-background:new 0 0 56.7 56.7;" xml:space="preserve">
<style type="text/css">
	.st0{fill:#323333;stroke:#323333;stroke-width:0.7824;stroke-miterlimit:10;}
</style>
<g id="XMLID_2_">
	<path id="XMLID_3_" class="st0" d="M55.2,47.9l-8.9-11.4c-0.4-0.6-0.5-1.3-0.3-2c0.7-1.6,1-3.2,1-4.9c0-4.3-2.2-8.2-5.5-10.5
		c0.5-1.5,0.8-3,0.8-4.6c0-7.7-6.3-14-14-14c-7.7,0-14,6.3-14,14c0,1.6,0.3,3.2,0.8,4.7c-3.3,2.3-5.5,6.1-5.5,10.5
		c0,1.7,0.3,3.4,1,4.9c0.3,0.7,0.2,1.4-0.3,2L1.5,47.9c-1.8,2.3-1.4,5.5,0.9,7.3c0.9,0.7,2.1,1.1,3.2,1.1c0.2,0,0.4,0,0.6,0
		c1.4-0.2,2.6-0.9,3.5-2l8.9-11.4c0.4-0.6,1.2-0.8,1.9-0.7c0.6,0.1,1.3,0.1,2,0.1c2.1,0,4.1-0.5,5.8-1.4c1.7,0.9,3.7,1.4,5.8,1.4
		c0.7,0,1.3-0.1,2-0.1c0.7-0.1,1.4,0.2,1.9,0.7l8.9,11.4c0.9,1.1,2.1,1.8,3.5,2c0.2,0,0.4,0,0.6,0c1.2,0,2.3-0.4,3.2-1.1
		c1.1-0.9,1.8-2.1,2-3.5C56.4,50.3,56,48.9,55.2,47.9L55.2,47.9z M16.7,14.4c0-6.4,5.2-11.6,11.6-11.6S40,8,40,14.4
		c0,1.2-0.2,2.4-0.5,3.5c-1.6-0.7-3.4-1.2-5.3-1.2c-2.1,0-4.1,0.5-5.8,1.4c-1.7-0.9-3.7-1.4-5.8-1.4c-1.9,0-3.7,0.4-5.3,1.2
		C16.9,16.7,16.7,15.6,16.7,14.4L16.7,14.4z M22.5,40c-0.5,0-1.1,0-1.6-0.1c-1.5-0.2-3.1,0.4-4.1,1.6L8,52.8c-0.5,0.6-1.2,1-2,1.1
		c-0.8,0.1-1.6-0.1-2.2-0.6c-1.3-1-1.5-2.8-0.5-4l8.9-11.4c1-1.2,1.2-2.9,0.6-4.3c-0.5-1.3-0.8-2.6-0.8-4C12,23.7,16.7,19,22.5,19
		c1.2,0,2.4,0.2,3.5,0.6c-2.8,2.3-4.7,5.9-4.7,9.9s1.8,7.5,4.7,9.9C24.9,39.8,23.7,40,22.5,40L22.5,40z M53.9,51.4
		c-0.1,0.8-0.5,1.4-1.1,1.9c-0.6,0.5-1.4,0.7-2.2,0.6c-0.8-0.1-1.5-0.5-2-1.1l-8.9-11.4c-0.8-1-2.1-1.7-3.4-1.7
		c-0.2,0-0.4,0-0.7,0.1c-0.5,0.1-1.1,0.1-1.6,0.1c-5.8,0-10.5-4.7-10.5-10.5c0-5.8,4.7-10.5,10.5-10.5c1.6,0,3,0.4,4.4,1
		c-0.6,1.1-1.4,2.1-2.4,3c-1-1-2.3-1.6-3.8-1.6c-2.9,0-5.2,2.3-5.2,5.2c0,2.9,2.4,5.2,5.2,5.2c2.9,0,5.2-2.3,5.2-5.2
		c0-0.6-0.1-1.1-0.3-1.6c1.3-1.1,2.3-2.4,3.1-3.8c2.5,1.9,4.1,4.9,4.1,8.3c0,1.4-0.3,2.8-0.8,4c-0.6,1.4-0.4,3.1,0.6,4.3l8.9,11.4
		C53.8,49.9,54,50.6,53.9,51.4L53.9,51.4z M35.3,26.6c0,1.6-1.3,2.9-2.9,2.9c-1,0-1.9-0.5-2.4-1.3c1.9-0.2,3.7-0.8,5.3-1.8
		C35.3,26.5,35.3,26.6,35.3,26.6L35.3,26.6z M29.6,25.9c0.3-1.3,1.5-2.3,2.8-2.3c0.7,0,1.4,0.3,1.9,0.7
		C32.9,25.2,31.3,25.8,29.6,25.9L29.6,25.9z M29.6,25.9"/>
</g>
</svg>
