<?xml version="1.0" encoding="utf-8"?>
<!-- Generator: Adobe Illustrator 19.0.0, SVG Export Plug-In . SVG Version: 6.00 Build 0)  -->
<svg version="1.1" id="图层_1" xmlns="http://www.w3.org/2000/svg" xmlns:xlink="http://www.w3.org/1999/xlink" x="0px" y="0px"
	 viewBox="0 0 56.7 56.7" style="enable-background:new 0 0 56.7 56.7;" xml:space="preserve">
<style type="text/css">
	.st0{fill:#323333;}
</style>
<g id="XMLID_2_">
	<path id="XMLID_7_" class="st0" d="M8.9,56.7c-0.2,0-0.5,0-0.7-0.2c-0.6-0.3-0.9-0.8-0.9-1.4V42.8C2.6,38.1,0,32,0,25.7
		C0,11.5,12.7,0,28.3,0C44,0,56.7,11.5,56.7,25.7c0,14.1-12.7,25.7-28.3,25.7h-0.2c-0.9,0-1.6-0.7-1.6-1.6c0-0.9,0.7-1.6,1.6-1.6h0
		h0.2c13.9,0,25.1-10.1,25.1-22.4c0-12.4-11.3-22.4-25.1-22.4C14.5,3.2,3.2,13.3,3.2,25.7c0,5.7,2.4,11.2,6.8,15.3
		c0.3,0.3,0.5,0.7,0.5,1.2v9.6l6.6-5.3c0.7-0.6,1.7-0.4,2.3,0.2c0.6,0.7,0.4,1.7-0.2,2.3l-9.2,7.4C9.6,56.6,9.3,56.7,8.9,56.7
		L8.9,56.7L8.9,56.7z"/>
	<path id="XMLID_6_" class="st0" d="M12.1,25.7c0,1,0.4,1.9,1.1,2.6c0.7,0.7,1.7,1.1,2.6,1.1c1,0,1.9-0.4,2.6-1.1
		c0.7-0.7,1.1-1.7,1.1-2.6c0-1-0.4-1.9-1.1-2.6c-0.7-0.7-1.7-1.1-2.6-1.1c-1,0-1.9,0.4-2.6,1.1C12.5,23.7,12.1,24.7,12.1,25.7
		L12.1,25.7L12.1,25.7z"/>
	<path id="XMLID_5_" class="st0" d="M25.1,25.7c0,1,0.4,1.9,1.1,2.6c0.7,0.7,1.7,1.1,2.6,1.1c1,0,1.9-0.4,2.6-1.1
		c0.7-0.7,1.1-1.7,1.1-2.6c0-1-0.4-1.9-1.1-2.6c-0.7-0.7-1.7-1.1-2.6-1.1c-1,0-1.9,0.4-2.6,1.1C25.5,23.7,25.1,24.7,25.1,25.7
		L25.1,25.7L25.1,25.7z"/>
	<path id="XMLID_4_" class="st0" d="M38,25.7c0,1,0.4,1.9,1.1,2.6c0.7,0.7,1.7,1.1,2.6,1.1c1,0,1.9-0.4,2.6-1.1
		c0.7-0.7,1.1-1.7,1.1-2.6c0-1-0.4-1.9-1.1-2.6c-0.7-0.7-1.7-1.1-2.6-1.1c-1,0-1.9,0.4-2.6,1.1C38.4,23.7,38,24.7,38,25.7L38,25.7
		L38,25.7z"/>
	<path id="XMLID_3_" class="st0" d="M38,25.7"/>
</g>
</svg>
