<?xml version="1.0" encoding="utf-8"?>
<!-- Generator: Adobe Illustrator 16.0.0, SVG Export Plug-In . SVG Version: 6.00 Build 0)  -->
<!DOCTYPE svg PUBLIC "-//W3C//DTD SVG 1.1//EN" "http://www.w3.org/Graphics/SVG/1.1/DTD/svg11.dtd">
<svg version="1.1" id="图层_1" xmlns="http://www.w3.org/2000/svg" xmlns:xlink="http://www.w3.org/1999/xlink" x="0px" y="0px"
	 width="50px" height="50px" viewBox="16.75 10.829 50 50" enable-background="new 16.75 10.829 50 50" xml:space="preserve">
<g>
	<ellipse fill="none" stroke="#636363" stroke-width="2" stroke-miterlimit="10" cx="41.75" cy="29.354" rx="8.022" ry="7.02"/>
	<path fill="none" stroke="#636363" stroke-width="2" stroke-miterlimit="10" d="M41.75,15.772
		c-11.077,0-20.057,8.979-20.057,20.057c0,6.675,3.274,12.572,8.291,16.218c-0.173-0.811-0.269-1.651-0.269-2.514
		c0-6.647,5.389-12.034,12.034-12.034c6.646,0,12.034,5.387,12.034,12.034c0,0.862-0.094,1.703-0.267,2.514
		c5.017-3.646,8.289-9.543,8.289-16.218C61.807,24.752,52.827,15.772,41.75,15.772z"/>
	<circle fill="none" stroke="#636363" stroke-width="2" stroke-miterlimit="10" cx="41.75" cy="35.829" r="20.057"/>
</g>
</svg>
